<mxfile host="app.diagrams.net" modified="2021-01-09T08:17:26.252Z" agent="5.0 (Macintosh; Intel Mac OS X 10_15_6) AppleWebKit/537.36 (KHTML, like Gecko) Chrome/86.0.4240.193 Safari/537.36" etag="NATbxMyhhgN13Lk4hs3J" version="14.1.8" type="github">
  <diagram id="LrtfoXHrhHT_ntb2zdAv" name="Page-1">
    <mxGraphModel dx="1426" dy="771" grid="1" gridSize="10" guides="1" tooltips="1" connect="1" arrows="1" fold="1" page="1" pageScale="1" pageWidth="827" pageHeight="1169" math="0" shadow="0">
      <root>
        <mxCell id="0" />
        <mxCell id="1" parent="0" />
        <mxCell id="BwNlmVSKls3WJV9GoDXy-2" value="" style="rounded=1;whiteSpace=wrap;html=1;fillColor=#ffe6cc;strokeColor=#d79b00;" vertex="1" parent="1">
          <mxGeometry x="130" y="180" width="60" height="210" as="geometry" />
        </mxCell>
        <mxCell id="BwNlmVSKls3WJV9GoDXy-6" value="" style="rounded=1;whiteSpace=wrap;html=1;fillColor=#dae8fc;strokeColor=#6c8ebf;" vertex="1" parent="1">
          <mxGeometry x="430" y="180" width="60" height="210" as="geometry" />
        </mxCell>
        <mxCell id="BwNlmVSKls3WJV9GoDXy-8" value="" style="endArrow=none;html=1;startArrow=classic;startFill=1;endFill=0;" edge="1" parent="1">
          <mxGeometry width="50" height="50" relative="1" as="geometry">
            <mxPoint x="222.5" y="210" as="sourcePoint" />
            <mxPoint x="397.5" y="210" as="targetPoint" />
          </mxGeometry>
        </mxCell>
        <mxCell id="BwNlmVSKls3WJV9GoDXy-9" value="" style="endArrow=classic;html=1;" edge="1" parent="1">
          <mxGeometry width="50" height="50" relative="1" as="geometry">
            <mxPoint x="230" y="260" as="sourcePoint" />
            <mxPoint x="400" y="260" as="targetPoint" />
          </mxGeometry>
        </mxCell>
        <mxCell id="BwNlmVSKls3WJV9GoDXy-13" value="psync ? -1" style="text;html=1;strokeColor=none;fillColor=none;align=center;verticalAlign=middle;whiteSpace=wrap;rounded=0;" vertex="1" parent="1">
          <mxGeometry x="250" y="180" width="100" height="20" as="geometry" />
        </mxCell>
        <mxCell id="BwNlmVSKls3WJV9GoDXy-14" value="发送RDB文件" style="text;html=1;strokeColor=none;fillColor=none;align=center;verticalAlign=middle;whiteSpace=wrap;rounded=0;" vertex="1" parent="1">
          <mxGeometry x="260" y="280" width="90" height="20" as="geometry" />
        </mxCell>
        <mxCell id="BwNlmVSKls3WJV9GoDXy-15" value="发送缓冲区中保存所有的写命令" style="text;html=1;strokeColor=none;fillColor=none;align=center;verticalAlign=middle;whiteSpace=wrap;rounded=0;" vertex="1" parent="1">
          <mxGeometry x="255" y="330" width="90" height="20" as="geometry" />
        </mxCell>
        <mxCell id="BwNlmVSKls3WJV9GoDXy-19" value="&lt;pre&gt;fullresync ${runId} ${offset}&lt;/pre&gt;" style="text;html=1;strokeColor=none;fillColor=none;align=center;verticalAlign=middle;whiteSpace=wrap;rounded=0;" vertex="1" parent="1">
          <mxGeometry x="220" y="230" width="180" height="20" as="geometry" />
        </mxCell>
        <mxCell id="BwNlmVSKls3WJV9GoDXy-20" value="" style="endArrow=classic;html=1;" edge="1" parent="1">
          <mxGeometry width="50" height="50" relative="1" as="geometry">
            <mxPoint x="230" y="310" as="sourcePoint" />
            <mxPoint x="400" y="310" as="targetPoint" />
          </mxGeometry>
        </mxCell>
        <mxCell id="BwNlmVSKls3WJV9GoDXy-21" value="" style="endArrow=classic;html=1;" edge="1" parent="1">
          <mxGeometry width="50" height="50" relative="1" as="geometry">
            <mxPoint x="230" y="370" as="sourcePoint" />
            <mxPoint x="400" y="370" as="targetPoint" />
          </mxGeometry>
        </mxCell>
        <mxCell id="BwNlmVSKls3WJV9GoDXy-22" value="执行bgsave生成rdb" style="text;html=1;strokeColor=none;fillColor=none;align=center;verticalAlign=middle;whiteSpace=wrap;rounded=0;" vertex="1" parent="1">
          <mxGeometry y="277.5" width="120" height="15" as="geometry" />
        </mxCell>
        <mxCell id="BwNlmVSKls3WJV9GoDXy-24" value="master&lt;br&gt;172.16.19.2" style="text;html=1;strokeColor=none;fillColor=none;align=center;verticalAlign=middle;whiteSpace=wrap;rounded=0;" vertex="1" parent="1">
          <mxGeometry x="140" y="130" width="40" height="20" as="geometry" />
        </mxCell>
        <mxCell id="BwNlmVSKls3WJV9GoDXy-26" value="slave&lt;br&gt;172.16.19.2" style="text;html=1;strokeColor=none;fillColor=none;align=center;verticalAlign=middle;whiteSpace=wrap;rounded=0;" vertex="1" parent="1">
          <mxGeometry x="440" y="130" width="40" height="20" as="geometry" />
        </mxCell>
        <mxCell id="BwNlmVSKls3WJV9GoDXy-27" value="执行 slaveof 172.16.19.2" style="text;html=1;strokeColor=none;fillColor=none;align=center;verticalAlign=middle;whiteSpace=wrap;rounded=0;" vertex="1" parent="1">
          <mxGeometry x="510" y="200" width="160" height="20" as="geometry" />
        </mxCell>
        <mxCell id="BwNlmVSKls3WJV9GoDXy-28" value="保存主节点信息" style="text;html=1;strokeColor=none;fillColor=none;align=center;verticalAlign=middle;whiteSpace=wrap;rounded=0;" vertex="1" parent="1">
          <mxGeometry x="540" y="250" width="110" height="20" as="geometry" />
        </mxCell>
        <mxCell id="BwNlmVSKls3WJV9GoDXy-29" value="清空现有数据，加载RDB" style="text;html=1;strokeColor=none;fillColor=none;align=center;verticalAlign=middle;whiteSpace=wrap;rounded=0;" vertex="1" parent="1">
          <mxGeometry x="510" y="300" width="160" height="20" as="geometry" />
        </mxCell>
        <mxCell id="BwNlmVSKls3WJV9GoDXy-30" value="加载缓冲区命令" style="text;html=1;strokeColor=none;fillColor=none;align=center;verticalAlign=middle;whiteSpace=wrap;rounded=0;" vertex="1" parent="1">
          <mxGeometry x="515" y="360" width="160" height="20" as="geometry" />
        </mxCell>
      </root>
    </mxGraphModel>
  </diagram>
</mxfile>
